<?xml version="1.0" encoding="UTF-8" standalone="no"?>
<!DOCTYPE svg PUBLIC "-//W3C//DTD SVG 1.1//EN"
 "http://www.w3.org/Graphics/SVG/1.1/DTD/svg11.dtd">
<!-- Generated by graphviz version 2.40.1 (20161225.0304)
 -->
<!-- Title: G Pages: 1 -->
<svg width="356pt" height="406pt"
 viewBox="0.00 0.00 355.92 406.00" xmlns="http://www.w3.org/2000/svg" xmlns:xlink="http://www.w3.org/1999/xlink">
<g id="graph0" class="graph" transform="scale(1 1) rotate(0) translate(4 402)">
<title>G</title>
<polygon fill="#ffffff" stroke="transparent" points="-4,4 -4,-402 351.9242,-402 351.9242,4 -4,4"/>
<g id="clust1" class="cluster">
<title>cluster_Global</title>
<path fill="none" stroke="#c0c0c0" d="M20,-8C20,-8 327.9242,-8 327.9242,-8 333.9242,-8 339.9242,-14 339.9242,-20 339.9242,-20 339.9242,-378 339.9242,-378 339.9242,-384 333.9242,-390 327.9242,-390 327.9242,-390 20,-390 20,-390 14,-390 8,-384 8,-378 8,-378 8,-20 8,-20 8,-14 14,-8 20,-8"/>
<text text-anchor="middle" x="173.9621" y="-377.2" font-family="Times,serif" font-size="11.00" fill="#c0c0c0">Global</text>
</g>
<g id="clust2" class="cluster">
<title>cluster_\RKD</title>
<path fill="none" stroke="#c0c0c0" d="M35.9514,-16C35.9514,-16 319.9242,-16 319.9242,-16 325.9242,-16 331.9242,-22 331.9242,-28 331.9242,-28 331.9242,-199 331.9242,-199 331.9242,-205 325.9242,-211 319.9242,-211 319.9242,-211 35.9514,-211 35.9514,-211 29.9514,-211 23.9514,-205 23.9514,-199 23.9514,-199 23.9514,-28 23.9514,-28 23.9514,-22 29.9514,-16 35.9514,-16"/>
<text text-anchor="middle" x="177.9378" y="-198.2" font-family="Times,serif" font-size="11.00" fill="#c0c0c0">RKD</text>
</g>
<g id="clust3" class="cluster">
<title>cluster_\RKD\Blockchain</title>
<path fill="none" stroke="#c0c0c0" d="M43.9514,-24C43.9514,-24 311.9242,-24 311.9242,-24 317.9242,-24 323.9242,-30 323.9242,-36 323.9242,-36 323.9242,-172 323.9242,-172 323.9242,-178 317.9242,-184 311.9242,-184 311.9242,-184 43.9514,-184 43.9514,-184 37.9514,-184 31.9514,-178 31.9514,-172 31.9514,-172 31.9514,-36 31.9514,-36 31.9514,-30 37.9514,-24 43.9514,-24"/>
<text text-anchor="middle" x="177.9378" y="-171.2" font-family="Times,serif" font-size="11.00" fill="#c0c0c0">Blockchain</text>
</g>
<g id="clust4" class="cluster">
<title>cluster_\RKD\Blockchain\Contracts</title>
<path fill="none" stroke="#c0c0c0" d="M51.9514,-32C51.9514,-32 125.9621,-32 125.9621,-32 131.9621,-32 137.9621,-38 137.9621,-44 137.9621,-44 137.9621,-145 137.9621,-145 137.9621,-151 131.9621,-157 125.9621,-157 125.9621,-157 51.9514,-157 51.9514,-157 45.9514,-157 39.9514,-151 39.9514,-145 39.9514,-145 39.9514,-44 39.9514,-44 39.9514,-38 45.9514,-32 51.9514,-32"/>
<text text-anchor="middle" x="88.9567" y="-144.2" font-family="Times,serif" font-size="11.00" fill="#c0c0c0">Contracts</text>
</g>
<!-- \\RKD\\Blockchain\\Contracts\\Comparable -->
<g id="node1" class="node">
<title>\\RKD\\Blockchain\\Contracts\\Comparable</title>
<polygon fill="none" stroke="#000000" points="129.9675,-130 47.946,-130 47.946,-94 129.9675,-94 129.9675,-130"/>
<text text-anchor="middle" x="88.9567" y="-108.7" font-family="Courier,monospace" font-size="11.00" fill="#000000">Comparable</text>
</g>
<!-- \\RKD\\Blockchain\\Contracts\\Arrayable -->
<g id="node2" class="node">
<title>\\RKD\\Blockchain\\Contracts\\Arrayable</title>
<polygon fill="none" stroke="#000000" points="126.8675,-76 51.046,-76 51.046,-40 126.8675,-40 126.8675,-76"/>
<text text-anchor="middle" x="88.9567" y="-54.7" font-family="Courier,monospace" font-size="11.00" fill="#000000">Arrayable</text>
</g>
<!-- \\RKD\\Blockchain\\Block -->
<g id="node3" class="node">
<title>\\RKD\\Blockchain\\Block</title>
<polygon fill="none" stroke="#000000" points="301.9189,-103 247.9189,-103 247.9189,-67 301.9189,-67 301.9189,-103"/>
<text text-anchor="middle" x="274.9189" y="-81.7" font-family="Courier,monospace" font-size="11.00" fill="#000000">Block</text>
</g>
<!-- \\RKD\\Blockchain\\Block&#45;&gt;\\RKD\\Blockchain\\Contracts\\Comparable -->
<g id="edge3" class="edge">
<title>\\RKD\\Blockchain\\Block&#45;&gt;\\RKD\\Blockchain\\Contracts\\Comparable</title>
<path fill="none" stroke="#000000" stroke-dasharray="1,5" d="M247.8784,-88.926C219.7313,-93.0127 174.9744,-99.511 140.12,-104.5716"/>
<polygon fill="none" stroke="#000000" points="139.5066,-101.1238 130.1133,-106.0244 140.5125,-108.0512 139.5066,-101.1238"/>
</g>
<!-- \\RKD\\Blockchain\\Block&#45;&gt;\\RKD\\Blockchain\\Contracts\\Arrayable -->
<g id="edge2" class="edge">
<title>\\RKD\\Blockchain\\Block&#45;&gt;\\RKD\\Blockchain\\Contracts\\Arrayable</title>
<path fill="none" stroke="#000000" stroke-dasharray="1,5" d="M247.8784,-81.074C218.9061,-76.8675 172.336,-70.1059 137.0808,-64.9872"/>
<polygon fill="none" stroke="#000000" points="137.3982,-61.4966 126.9991,-63.5234 136.3924,-68.424 137.3982,-61.4966"/>
</g>
<!-- JsonSerializable -->
<g id="node5" class="node">
<title>JsonSerializable</title>
<ellipse fill="none" stroke="#000000" cx="88.9567" cy="-237" rx="67.6442" ry="18"/>
<text text-anchor="middle" x="88.9567" y="-232.8" font-family="Times,serif" font-size="14.00" fill="#c0c0c0">JsonSerializable</text>
</g>
<!-- \\RKD\\Blockchain\\Block&#45;&gt;JsonSerializable -->
<g id="edge1" class="edge">
<title>\\RKD\\Blockchain\\Block&#45;&gt;JsonSerializable</title>
<path fill="none" stroke="#000000" stroke-dasharray="1,5" d="M247.6659,-102.2326C243.0055,-105.3803 238.2663,-108.7119 233.9135,-112 190.5293,-144.7725 143.3884,-186.7141 115.0148,-212.7172"/>
<polygon fill="none" stroke="#000000" points="112.5158,-210.2604 107.5283,-219.6079 117.2564,-215.4108 112.5158,-210.2604"/>
</g>
<!-- \\RKD\\Blockchain\\Blockchain -->
<g id="node4" class="node">
<title>\\RKD\\Blockchain\\Blockchain</title>
<polygon fill="none" stroke="#000000" points="315.9296,-157 233.9081,-157 233.9081,-121 315.9296,-121 315.9296,-157"/>
<text text-anchor="middle" x="274.9189" y="-135.7" font-family="Courier,monospace" font-size="11.00" fill="#000000">Blockchain</text>
</g>
<!-- \\RKD\\Blockchain\\Blockchain&#45;&gt;JsonSerializable -->
<g id="edge5" class="edge">
<title>\\RKD\\Blockchain\\Blockchain&#45;&gt;JsonSerializable</title>
<path fill="none" stroke="#000000" stroke-dasharray="1,5" d="M240.3766,-157.2034C208.6933,-173.9002 161.7858,-198.6199 128.5896,-216.1139"/>
<polygon fill="none" stroke="#000000" points="126.8291,-213.0854 119.6141,-220.8439 130.0926,-219.2781 126.8291,-213.0854"/>
</g>
<!-- Countable -->
<g id="node6" class="node">
<title>Countable</title>
<ellipse fill="none" stroke="#000000" cx="88.9567" cy="-291" rx="46.4132" ry="18"/>
<text text-anchor="middle" x="88.9567" y="-286.8" font-family="Times,serif" font-size="14.00" fill="#c0c0c0">Countable</text>
</g>
<!-- \\RKD\\Blockchain\\Blockchain&#45;&gt;Countable -->
<g id="edge4" class="edge">
<title>\\RKD\\Blockchain\\Blockchain&#45;&gt;Countable</title>
<path fill="none" stroke="#000000" stroke-dasharray="1,5" d="M262.7948,-157.2566C244.0967,-184.1202 205.7622,-234.3157 161.9135,-264 154.2752,-269.1709 145.5199,-273.5044 136.7871,-277.0794"/>
<polygon fill="none" stroke="#000000" points="135.4733,-273.8345 127.374,-280.6646 137.9649,-280.3761 135.4733,-273.8345"/>
</g>
<!-- IteratorAggregate -->
<g id="node7" class="node">
<title>IteratorAggregate</title>
<ellipse fill="none" stroke="#000000" cx="88.9567" cy="-345" rx="72.9135" ry="18"/>
<text text-anchor="middle" x="88.9567" y="-340.8" font-family="Times,serif" font-size="14.00" fill="#c0c0c0">IteratorAggregate</text>
</g>
<!-- \\RKD\\Blockchain\\Blockchain&#45;&gt;IteratorAggregate -->
<g id="edge6" class="edge">
<title>\\RKD\\Blockchain\\Blockchain&#45;&gt;IteratorAggregate</title>
<path fill="none" stroke="#000000" stroke-dasharray="1,5" d="M268.1019,-157.236C253.8275,-193.0495 217.4475,-272.9943 161.9135,-318 157.5853,-321.5077 152.7577,-324.5859 147.704,-327.2821"/>
<polygon fill="none" stroke="#000000" points="145.9258,-324.2531 138.4222,-331.7329 148.9525,-330.565 145.9258,-324.2531"/>
</g>
</g>
</svg>
